<svg id="visual" viewBox="0 0 60 20" width="60" height="20" xmlns="http://www.w3.org/2000/svg" xmlns:xlink="http://www.w3.org/1999/xlink" version="1.1"><rect x="0" y="0" width="60" height="20" fill="#140021"></rect><path d="M43 0L53 0L53 1L38 1L38 3L55 3L55 4L39 4L39 5L53 5L53 6L34 6L34 8L39 8L39 9L54 9L54 10L45 10L45 11L56 11L56 13L28 13L28 14L40 14L40 15L28 15L28 16L48 16L48 18L28 18L28 19L35 19L35 20L0 20L0 19L0 19L0 18L0 18L0 16L0 16L0 15L0 15L0 14L0 14L0 13L0 13L0 11L0 11L0 10L0 10L0 9L0 9L0 8L0 8L0 6L0 6L0 5L0 5L0 4L0 4L0 3L0 3L0 1L0 1L0 0L0 0Z" fill="#9900ff"></path><path d="M27 0L43 0L43 1L24 1L24 3L43 3L43 4L46 4L46 5L24 5L24 6L45 6L45 8L25 8L25 9L27 9L27 10L26 10L26 11L29 11L29 13L34 13L34 14L24 14L24 15L45 15L45 16L31 16L31 18L41 18L41 19L45 19L45 20L0 20L0 19L0 19L0 18L0 18L0 16L0 16L0 15L0 15L0 14L0 14L0 13L0 13L0 11L0 11L0 10L0 10L0 9L0 9L0 8L0 8L0 6L0 6L0 5L0 5L0 4L0 4L0 3L0 3L0 1L0 1L0 0L0 0Z" fill="#8b00e8"></path><path d="M23 0L22 0L22 1L20 1L20 3L29 3L29 4L24 4L24 5L27 5L27 6L29 6L29 8L19 8L19 9L40 9L40 10L23 10L23 11L30 11L30 13L32 13L32 14L28 14L28 15L33 15L33 16L29 16L29 18L27 18L27 19L18 19L18 20L0 20L0 19L0 19L0 18L0 18L0 16L0 16L0 15L0 15L0 14L0 14L0 13L0 13L0 11L0 11L0 10L0 10L0 9L0 9L0 8L0 8L0 6L0 6L0 5L0 5L0 4L0 4L0 3L0 3L0 1L0 1L0 0L0 0Z" fill="#7e00d1"></path><path d="M24 0L14 0L14 1L27 1L27 3L27 3L27 4L21 4L21 5L28 5L28 6L24 6L24 8L29 8L29 9L15 9L15 10L14 10L14 11L18 11L18 13L20 13L20 14L16 14L16 15L25 15L25 16L27 16L27 18L25 18L25 19L25 19L25 20L0 20L0 19L0 19L0 18L0 18L0 16L0 16L0 15L0 15L0 14L0 14L0 13L0 13L0 11L0 11L0 10L0 10L0 9L0 9L0 8L0 8L0 6L0 6L0 5L0 5L0 4L0 4L0 3L0 3L0 1L0 1L0 0L0 0Z" fill="#7000bb"></path><path d="M12 0L16 0L16 1L16 1L16 3L18 3L18 4L11 4L11 5L14 5L14 6L21 6L21 8L10 8L10 9L14 9L14 10L24 10L24 11L15 11L15 13L15 13L15 14L23 14L23 15L18 15L18 16L8 16L8 18L16 18L16 19L19 19L19 20L0 20L0 19L0 19L0 18L0 18L0 16L0 16L0 15L0 15L0 14L0 14L0 13L0 13L0 11L0 11L0 10L0 10L0 9L0 9L0 8L0 8L0 6L0 6L0 5L0 5L0 4L0 4L0 3L0 3L0 1L0 1L0 0L0 0Z" fill="#6300a5"></path><path d="M9 0L11 0L11 1L10 1L10 3L16 3L16 4L7 4L7 5L4 5L4 6L13 6L13 8L16 8L16 9L12 9L12 10L16 10L16 11L12 11L12 13L12 13L12 14L14 14L14 15L15 15L15 16L10 16L10 18L8 18L8 19L15 19L15 20L0 20L0 19L0 19L0 18L0 18L0 16L0 16L0 15L0 15L0 14L0 14L0 13L0 13L0 11L0 11L0 10L0 10L0 9L0 9L0 8L0 8L0 6L0 6L0 5L0 5L0 4L0 4L0 3L0 3L0 1L0 1L0 0L0 0Z" fill="#560090"></path></svg>